PathFileType	4	(X/Y/Z)	Run_400 02
DataRate	CameraRate	NumFrames	NumMarkers	Units	OrigDataRate	OrigDataStartFrame	OrigNumFrames
100	100	5	42	mm	100	125	128
Frame#	Time	LPSI			RPSI			RTH2			RTH3			LTH1			LTH2			LTH3			RTB1			RTB2			LTB1			LTB2			RCAL			RTOE			RMT5			LCAL			LTOE			LMT5			LACR			RACR			CLAV			C7			RUA1			RUA2			RUA3			RLEL			LUA1			LUA2			LUA3			LLEL			LMEL			RFAsuperior			RFAulna			LFAsuperior			LFAradius			LFAulna			RASI			RTB3			LTB3			RMEL			RFAradius			RTH1			LASI			
		X1	Y1	Z1	X2	Y2	Z2	X3	Y3	Z3	X4	Y4	Z4	X5	Y5	Z5	X6	Y6	Z6	X7	Y7	Z7	X8	Y8	Z8	X9	Y9	Z9	X10	Y10	Z10	X11	Y11	Z11	X12	Y12	Z12	X13	Y13	Z13	X14	Y14	Z14	X15	Y15	Z15	X16	Y16	Z16	X17	Y17	Z17	X18	Y18	Z18	X19	Y19	Z19	X20	Y20	Z20	X21	Y21	Z21	X22	Y22	Z22	X23	Y23	Z23	X24	Y24	Z24	X25	Y25	Z25	X26	Y26	Z26	X27	Y27	Z27	X28	Y28	Z28	X29	Y29	Z29	X30	Y30	Z30	X31	Y31	Z31	X32	Y32	Z32	X33	Y33	Z33	X34	Y34	Z34	X35	Y35	Z35	X36	Y36	Z36	X37	Y37	Z37	X38	Y38	Z38	X39	Y39	Z39	X40	Y40	Z40	X41	Y41	Z41	X42	Y42	Z42	

103	1.89	821.256604	1120.294615	-389.289157	840.221753	1112.615133	-276.593886	820.348338	801.394093	-192.768901	807.538672	647.453225	-218.624131	928.349302	938.95214	-531.0094360000001	918.33046	774.1951749999999	-473.938014	1015.365212	666.314836	-473.540278	648.270081	456.339288	-287.188109	586.931049	516.455771	-212.019516	1147.354087	477.982921	-406.582686	1086.787298	348.728159	-441.818449	332.488961	518.1954030000001	-237.837672	293.235962	303.838865	-343.476853	261.834545	317.193295	-243.912944	1094.857184	96.502376	-334.987589	1319.197307	172.046428	-336.977289	1290.413526	86.779183	-405.975756	945.133998	1552.840084	-499.927692	1032.596267	1521.332691	-197.995388	1052.526983	1490.55985	-334.72969	927.28057	1563.280423	-336.107051	949.1844610000001	1429.596017	-104.353604	998.7818	1369.193162	-94.50653800000001	950.174648	1294.475905	-33.900294	929.615526	1232.267775	-1.541467	814.334231	1508.010838	-521.453346	803.816199	1430.458761	-557.542012	707.8422389999999	1403.414275	-552.125827	662.436361	1346.156622	-563.390415	672.344076	1318.097948	-477.183035	1021.326717	1198.96322	-52.42798	1134.399833	1159.404738	-160.31063	711.845289	1282.630976	-582.221592	894.971711	1235.583525	-552.265848	861.896214	1181.005762	-585.623383	1005.77041	1043.691558	-236.850995	457.085484	432.189924	-278.781563	1173.593171	263.732412	-381.002911	897.534249	1209.03596	-83.788725	1119.128027	1211.098287	-203.765417	918.974068	927.352116	-178.776513	970.984867	1063.83897	-478.048771	
104	1.9	821.437097	1113.215507	-389.102525	840.292098	1105.610203	-276.355595	824.971482	792.29596	-192.98582	817.935951	637.849855	-216.804279	926.927052	930.89408	-530.781435	915.960091	766.6992310000001	-472.127808	1012.354929	658.429988	-472.103061	660.243466	452.940473	-284.004822	603.108099	518.4304550000001	-210.760431	1140.237891	466.667417	-406.815492	1075.756441	338.815553	-440.336565	349.088299	537.604168	-236.37587	296.817442	322.741113	-335.542076	266.508591	341.129436	-236.578071	1077.432167	91.72266399999999	-331.115438	1304.644017	153.199715	-339.106773	1273.086593	67.8817	-407.040613	945.171827	1544.514323	-502.351725	1031.477658	1514.468581	-198.839066	1052.332604	1483.745154	-335.815148	927.018872	1556.867081	-338.413486	944.907811	1424.72238	-105.893712	993.435785	1364.071974	-93.65546399999999	943.0545550000001	1290.250665	-33.723356	920.8312100000001	1229.19788	-0.773599	814.55385	1497.454939	-525.388359	806.16203	1418.866042	-560.32057	710.925793	1389.305259	-555.766967	666.663114	1331.490534	-566.888384	676.460312	1304.154835	-480.450236	1012.068881	1189.665404	-48.364555	1125.778474	1139.895834	-151.014398	717.297966	1268.749975	-584.8655649999999	901.138332	1225.153861	-553.573438	869.143375	1169.902104	-586.854809	1005.757086	1038.18309	-236.768338	467.836276	442.285133	-275.188517	1161.203286	251.794631	-380.664787	889.984302	1205.036681	-82.738833	1114.966185	1189.959015	-197.654051	921.054694	920.6342969999999	-178.503653	971.227757	1056.649564	-477.920432	
105	1.91	821.667329	1105.206332	-389.143331	840.028668	1097.979587	-276.331009	828.892128	783.163965	-194.290611	828.454062	627.871181	-214.59427	925.744699	922.1446570000001	-529.631638	913.573641	758.518834	-470.046678	1009.398377	649.944742	-471.167504	674.122318	448.880614	-280.419924	620.724786	519.539897	-208.76585	1132.950584	453.786976	-408.418799	1062.093796	328.407158	-438.469716	366.776647	554.747448	-236.225018	306.12064	338.125232	-326.880813	276.86193	361.762386	-228.763548	1053.748259	90.24032699999999	-326.604893	1284.276148	129.075424	-339.698511	1245.885985	49.581955	-409.528277	945.225592	1535.214185	-505.119393	1029.681064	1506.979821	-199.551012	1051.946757	1476.143439	-336.898461	926.390824	1549.191267	-340.864173	940.071238	1418.944696	-107.448269	987.5388369999999	1357.726613	-93.245473	935.2381339999999	1285.220254	-33.537604	911.4302709999999	1225.641978	-0.007728	814.834968	1485.592826	-529.638904	809.011647	1405.88833	-563.662433	714.564465	1373.716315	-560.127792	671.594085	1315.334615	-571.27164	680.986346	1288.909127	-484.449278	1001.916073	1179.955627	-43.741442	1115.414304	1119.223765	-140.607459	723.489334	1253.217562	-588.326476	907.809411	1213.067289	-554.918329	877.023229	1157.132731	-588.24743	1005.442141	1032.106987	-235.912918	481.222533	450.834261	-271.401867	1145.288601	238.400635	-380.2317	882.159443	1200.282731	-81.881319	1108.898806	1167.238656	-190.377699	921.969475	913.516833	-177.759936	971.442495	1048.594125	-477.645318	
106	1.92	821.637512	1096.926934	-389.223746	839.1709980000001	1089.82083	-276.281104	832.800802	773.648332	-196.166335	839.224828	617.472842	-212.006704	924.52236	913.222802	-527.3667390000001	911.150582	750.125238	-468.808178	1007.355908	641.710743	-471.414583	689.621177	443.990595	-276.238714	639.596329	520.067112	-206.254495	1126.753707	441.610246	-409.348984	1048.252963	319.824714	-435.706603	385.276872	569.401042	-237.039852	320.736315	349.921416	-317.759137	292.053522	378.730458	-220.795621	1024.364469	91.42457	-320.602874	1257.856114	105.213342	-336.69089	1211.114058	37.362808	-411.672878	945.538585	1525.003931	-508.202155	1027.287466	1499.154324	-200.109259	1051.454942	1467.882862	-337.781795	925.388583	1540.287057	-343.553699	934.683674	1412.398963	-109.248266	981.214498	1350.448892	-93.296295	926.918307	1279.549822	-33.686214	901.466425	1221.74607	0.522338	815.431718	1472.414049	-534.269424	812.488333	1391.64811	-567.510352	718.861373	1356.906028	-565.130584	677.359477	1297.936613	-576.414354	685.979654	1272.675979	-489.001583	990.91114	1169.938539	-38.555047	1103.231559	1097.8165	-129.134643	730.5409059999999	1236.31958	-592.481631	914.997835	1199.316648	-556.242184	885.522003	1142.694774	-589.6546070000001	1005.046578	1025.047661	-234.451972	497.008517	457.477548	-267.352531	1126.653757	226.177297	-377.078247	873.993834	1195.134485	-81.47815799999999	1100.948676	1143.242243	-181.74613	921.88194	905.747522	-177.288112	971.416701	1040.357758	-477.42217	
107	1.93	820.903653	1089.11583	-389.00391	837.565128	1081.650542	-275.85226	837.44051	763.652103	-197.647132	850.643781	606.748443	-209.074833	922.303738	905.012169	-525.086396	909.108231	742.369824	-469.087422	1007.087081	634.881141	-472.852089	706.355645	438.490224	-271.053712	659.722677	519.749891	-203.380041	1122.149849	432.514899	-407.633183	1036.123013	315.569848	-432.443807	404.983766	581.120672	-238.556166	339.4764	358.204388	-308.386206	311.139166	392.002941	-212.834586	990.58942	93.922347	-313.875089	1226.176772	87.713634	-330.494708	1172.83957	33.299812	-411.696678	946.236552	1514.157486	-511.450599	1024.552755	1491.374851	-200.360007	1051.055281	1459.357574	-338.293226	924.256963	1530.827174	-346.624101	928.771316	1405.352546	-111.520193	974.545136	1342.812193	-93.50071199999999	918.2989260000001	1273.437119	-34.377434	891.0263619999999	1217.592033	0.562542	816.743823	1457.751594	-539.530378	816.760208	1376.23334	-571.675278	724.0446899999999	1338.919721	-570.626403	684.033683	1279.549796	-582.1507	691.614724	1255.608523	-494.047757	978.995814	1159.675372	-33.047294	1089.311461	1076.424262	-116.708412	738.421869	1218.264258	-597.050034	922.726623	1183.972586	-557.565165	894.588758	1126.64759	-590.863369	1004.462102	1016.886293	-233.070247	514.9899359999999	462.070349	-263.341134	1106.085302	217.855879	-370.661648	865.357224	1189.793363	-81.608941	1091.195398	1118.426862	-172.030432	921.264519	897.466308	-177.681745	970.723899	1032.596911	-477.052394	
